<svg width="100" height="100" viewBox="0 0 100 100" fill="none" xmlns="http://www.w3.org/2000/svg">
<rect width="100" height="100" rx="50" fill="#F7F8F7"/>
<path d="M50.5 49.5C57.9789 49.5 64.0417 43.4372 64.0417 35.9583C64.0417 28.4794 57.9789 22.4166 50.5 22.4166C43.0212 22.4166 36.9584 28.4794 36.9584 35.9583C36.9584 43.4372 43.0212 49.5 50.5 49.5Z" stroke="#005C3D" stroke-width="5"/>
<path d="M64.0417 76.5833H32.2621C31.494 76.5835 30.7346 76.4203 30.0343 76.1045C29.3341 75.7888 28.709 75.3277 28.2006 74.7519C27.6922 74.1761 27.312 73.4988 27.0854 72.7648C26.8587 72.0309 26.7908 71.2572 26.886 70.495L27.9423 62.0341C28.1879 60.0685 29.1432 58.2603 30.6285 56.9496C32.1138 55.6388 34.0268 54.9159 36.0077 54.9166H36.9583M61.3333 60.3333L67.4271 65.75L77.5833 54.9166" stroke="#005C3D" stroke-width="5" stroke-linecap="round" stroke-linejoin="round"/>
</svg>
